<mxfile host="Electron" agent="Mozilla/5.0 (X11; Linux x86_64) AppleWebKit/537.36 (KHTML, like Gecko) draw.io/26.1.1 Chrome/132.0.6834.210 Electron/34.3.3 Safari/537.36" version="26.1.1">
  <diagram name="Page-1" id="axWMTl_xdaJlqCew_74w">
    <mxGraphModel dx="1434" dy="839" grid="0" gridSize="10" guides="1" tooltips="1" connect="1" arrows="1" fold="1" page="1" pageScale="1" pageWidth="827" pageHeight="1169" math="0" shadow="0">
      <root>
        <mxCell id="0" />
        <mxCell id="1" parent="0" />
        <mxCell id="huvdQYYf8r91kiq4MGOs-3" value="" style="edgeStyle=orthogonalEdgeStyle;rounded=0;orthogonalLoop=1;jettySize=auto;html=1;" parent="1" source="huvdQYYf8r91kiq4MGOs-1" target="huvdQYYf8r91kiq4MGOs-2" edge="1">
          <mxGeometry relative="1" as="geometry" />
        </mxCell>
        <mxCell id="huvdQYYf8r91kiq4MGOs-1" value="start" style="ellipse;whiteSpace=wrap;html=1;" parent="1" vertex="1">
          <mxGeometry x="360" y="10" width="90" height="40" as="geometry" />
        </mxCell>
        <mxCell id="huvdQYYf8r91kiq4MGOs-5" value="" style="edgeStyle=orthogonalEdgeStyle;rounded=0;orthogonalLoop=1;jettySize=auto;html=1;" parent="1" source="huvdQYYf8r91kiq4MGOs-2" target="huvdQYYf8r91kiq4MGOs-4" edge="1">
          <mxGeometry relative="1" as="geometry" />
        </mxCell>
        <mxCell id="huvdQYYf8r91kiq4MGOs-23" value="" style="edgeStyle=orthogonalEdgeStyle;rounded=0;orthogonalLoop=1;jettySize=auto;html=1;" parent="1" source="huvdQYYf8r91kiq4MGOs-2" target="huvdQYYf8r91kiq4MGOs-22" edge="1">
          <mxGeometry relative="1" as="geometry" />
        </mxCell>
        <mxCell id="huvdQYYf8r91kiq4MGOs-28" value="" style="edgeStyle=orthogonalEdgeStyle;rounded=0;orthogonalLoop=1;jettySize=auto;html=1;" parent="1" source="huvdQYYf8r91kiq4MGOs-2" target="huvdQYYf8r91kiq4MGOs-27" edge="1">
          <mxGeometry relative="1" as="geometry" />
        </mxCell>
        <mxCell id="huvdQYYf8r91kiq4MGOs-2" value="Fetch API &amp;amp; URL" style="whiteSpace=wrap;html=1;" parent="1" vertex="1">
          <mxGeometry x="340" y="80" width="130" height="60" as="geometry" />
        </mxCell>
        <mxCell id="huvdQYYf8r91kiq4MGOs-9" value="" style="edgeStyle=orthogonalEdgeStyle;rounded=0;orthogonalLoop=1;jettySize=auto;html=1;" parent="1" source="huvdQYYf8r91kiq4MGOs-4" target="huvdQYYf8r91kiq4MGOs-8" edge="1">
          <mxGeometry relative="1" as="geometry" />
        </mxCell>
        <mxCell id="huvdQYYf8r91kiq4MGOs-4" value="Request LIbrary(API+URL)" style="whiteSpace=wrap;html=1;" parent="1" vertex="1">
          <mxGeometry x="334.38" y="190" width="141.25" height="50" as="geometry" />
        </mxCell>
        <mxCell id="huvdQYYf8r91kiq4MGOs-21" value="" style="edgeStyle=orthogonalEdgeStyle;rounded=0;orthogonalLoop=1;jettySize=auto;html=1;" parent="1" source="huvdQYYf8r91kiq4MGOs-6" target="huvdQYYf8r91kiq4MGOs-20" edge="1">
          <mxGeometry relative="1" as="geometry" />
        </mxCell>
        <mxCell id="huvdQYYf8r91kiq4MGOs-33" value="" style="edgeStyle=orthogonalEdgeStyle;rounded=0;orthogonalLoop=1;jettySize=auto;html=1;" parent="1" source="huvdQYYf8r91kiq4MGOs-6" target="huvdQYYf8r91kiq4MGOs-32" edge="1">
          <mxGeometry relative="1" as="geometry" />
        </mxCell>
        <mxCell id="huvdQYYf8r91kiq4MGOs-6" value="if status_code ==200&lt;div&gt;☑️&lt;/div&gt;" style="rhombus;whiteSpace=wrap;html=1;" parent="1" vertex="1">
          <mxGeometry x="315" y="370" width="180" height="130" as="geometry" />
        </mxCell>
        <mxCell id="huvdQYYf8r91kiq4MGOs-10" value="" style="edgeStyle=orthogonalEdgeStyle;rounded=0;orthogonalLoop=1;jettySize=auto;html=1;" parent="1" source="huvdQYYf8r91kiq4MGOs-8" target="huvdQYYf8r91kiq4MGOs-6" edge="1">
          <mxGeometry relative="1" as="geometry" />
        </mxCell>
        <mxCell id="huvdQYYf8r91kiq4MGOs-8" value="Response Object" style="whiteSpace=wrap;html=1;" parent="1" vertex="1">
          <mxGeometry x="334.38" y="280" width="141.25" height="50" as="geometry" />
        </mxCell>
        <mxCell id="huvdQYYf8r91kiq4MGOs-17" value="" style="edgeStyle=orthogonalEdgeStyle;rounded=0;orthogonalLoop=1;jettySize=auto;html=1;" parent="1" source="huvdQYYf8r91kiq4MGOs-14" target="huvdQYYf8r91kiq4MGOs-16" edge="1">
          <mxGeometry relative="1" as="geometry" />
        </mxCell>
        <mxCell id="huvdQYYf8r91kiq4MGOs-19" value="" style="edgeStyle=orthogonalEdgeStyle;rounded=0;orthogonalLoop=1;jettySize=auto;html=1;" parent="1" source="huvdQYYf8r91kiq4MGOs-14" target="huvdQYYf8r91kiq4MGOs-18" edge="1">
          <mxGeometry relative="1" as="geometry" />
        </mxCell>
        <mxCell id="huvdQYYf8r91kiq4MGOs-14" value="if route is empty" style="rhombus;whiteSpace=wrap;html=1;" parent="1" vertex="1">
          <mxGeometry x="557.5" y="530" width="150" height="110" as="geometry" />
        </mxCell>
        <mxCell id="huvdQYYf8r91kiq4MGOs-41" style="edgeStyle=orthogonalEdgeStyle;rounded=0;orthogonalLoop=1;jettySize=auto;html=1;exitX=0.5;exitY=1;exitDx=0;exitDy=0;entryX=1;entryY=0.5;entryDx=0;entryDy=0;" parent="1" source="huvdQYYf8r91kiq4MGOs-16" target="huvdQYYf8r91kiq4MGOs-37" edge="1">
          <mxGeometry relative="1" as="geometry" />
        </mxCell>
        <mxCell id="huvdQYYf8r91kiq4MGOs-16" value="print, that root is empty" style="whiteSpace=wrap;html=1;" parent="1" vertex="1">
          <mxGeometry x="711" y="708" width="120" height="50" as="geometry" />
        </mxCell>
        <mxCell id="huvdQYYf8r91kiq4MGOs-36" value="" style="edgeStyle=orthogonalEdgeStyle;rounded=0;orthogonalLoop=1;jettySize=auto;html=1;" parent="1" source="huvdQYYf8r91kiq4MGOs-18" target="huvdQYYf8r91kiq4MGOs-35" edge="1">
          <mxGeometry relative="1" as="geometry" />
        </mxCell>
        <mxCell id="huvdQYYf8r91kiq4MGOs-18" value="&lt;div&gt;Build table: [(id, title, url)]│&lt;/div&gt;&lt;div&gt;&amp;nbsp;Print table with tabulate&lt;/div&gt;" style="whiteSpace=wrap;html=1;" parent="1" vertex="1">
          <mxGeometry x="550" y="790" width="165" height="70" as="geometry" />
        </mxCell>
        <mxCell id="huvdQYYf8r91kiq4MGOs-39" style="edgeStyle=orthogonalEdgeStyle;rounded=0;orthogonalLoop=1;jettySize=auto;html=1;exitX=0.5;exitY=1;exitDx=0;exitDy=0;entryX=0.5;entryY=0;entryDx=0;entryDy=0;" parent="1" source="huvdQYYf8r91kiq4MGOs-20" target="huvdQYYf8r91kiq4MGOs-37" edge="1">
          <mxGeometry relative="1" as="geometry" />
        </mxCell>
        <mxCell id="huvdQYYf8r91kiq4MGOs-20" value="Else, Error fetching articles" style="whiteSpace=wrap;html=1;" parent="1" vertex="1">
          <mxGeometry x="90" y="730" width="120" height="60" as="geometry" />
        </mxCell>
        <mxCell id="huvdQYYf8r91kiq4MGOs-26" style="edgeStyle=orthogonalEdgeStyle;rounded=0;orthogonalLoop=1;jettySize=auto;html=1;exitX=0.5;exitY=1;exitDx=0;exitDy=0;entryX=0.5;entryY=0;entryDx=0;entryDy=0;" parent="1" source="huvdQYYf8r91kiq4MGOs-22" target="huvdQYYf8r91kiq4MGOs-8" edge="1">
          <mxGeometry relative="1" as="geometry" />
        </mxCell>
        <mxCell id="huvdQYYf8r91kiq4MGOs-22" value="Using Client Library&lt;br&gt;(API+URL)" style="whiteSpace=wrap;html=1;" parent="1" vertex="1">
          <mxGeometry x="530" y="190" width="120" height="50" as="geometry" />
        </mxCell>
        <mxCell id="huvdQYYf8r91kiq4MGOs-29" style="edgeStyle=orthogonalEdgeStyle;rounded=0;orthogonalLoop=1;jettySize=auto;html=1;exitX=0.5;exitY=1;exitDx=0;exitDy=0;entryX=0.5;entryY=0;entryDx=0;entryDy=0;" parent="1" source="huvdQYYf8r91kiq4MGOs-27" target="huvdQYYf8r91kiq4MGOs-8" edge="1">
          <mxGeometry relative="1" as="geometry" />
        </mxCell>
        <mxCell id="huvdQYYf8r91kiq4MGOs-27" value="Acess Website only through URL" style="whiteSpace=wrap;html=1;" parent="1" vertex="1">
          <mxGeometry x="90" y="150" width="120" height="50" as="geometry" />
        </mxCell>
        <mxCell id="huvdQYYf8r91kiq4MGOs-34" style="edgeStyle=orthogonalEdgeStyle;rounded=0;orthogonalLoop=1;jettySize=auto;html=1;exitX=1;exitY=0.5;exitDx=0;exitDy=0;entryX=0;entryY=0.5;entryDx=0;entryDy=0;" parent="1" source="huvdQYYf8r91kiq4MGOs-32" target="huvdQYYf8r91kiq4MGOs-14" edge="1">
          <mxGeometry relative="1" as="geometry" />
        </mxCell>
        <mxCell id="huvdQYYf8r91kiq4MGOs-32" value="Convert the Response Object to Json" style="whiteSpace=wrap;html=1;" parent="1" vertex="1">
          <mxGeometry x="342.51" y="555" width="124.99" height="60" as="geometry" />
        </mxCell>
        <mxCell id="huvdQYYf8r91kiq4MGOs-38" value="" style="edgeStyle=orthogonalEdgeStyle;rounded=0;orthogonalLoop=1;jettySize=auto;html=1;" parent="1" source="huvdQYYf8r91kiq4MGOs-35" target="huvdQYYf8r91kiq4MGOs-37" edge="1">
          <mxGeometry relative="1" as="geometry" />
        </mxCell>
        <mxCell id="huvdQYYf8r91kiq4MGOs-35" value="Print the Table" style="whiteSpace=wrap;html=1;" parent="1" vertex="1">
          <mxGeometry x="572.5" y="910" width="120" height="60" as="geometry" />
        </mxCell>
        <mxCell id="cMrtVUzFiUulhtwpgHVa-2" value="" style="edgeStyle=orthogonalEdgeStyle;rounded=0;orthogonalLoop=1;jettySize=auto;html=1;" edge="1" parent="1" source="huvdQYYf8r91kiq4MGOs-37" target="cMrtVUzFiUulhtwpgHVa-1">
          <mxGeometry relative="1" as="geometry" />
        </mxCell>
        <mxCell id="huvdQYYf8r91kiq4MGOs-37" value="start main()" style="ellipse;whiteSpace=wrap;html=1;" parent="1" vertex="1">
          <mxGeometry x="351" y="973" width="150" height="50" as="geometry" />
        </mxCell>
        <mxCell id="cMrtVUzFiUulhtwpgHVa-4" value="" style="edgeStyle=orthogonalEdgeStyle;rounded=0;orthogonalLoop=1;jettySize=auto;html=1;" edge="1" parent="1" source="cMrtVUzFiUulhtwpgHVa-1" target="cMrtVUzFiUulhtwpgHVa-3">
          <mxGeometry relative="1" as="geometry" />
        </mxCell>
        <mxCell id="cMrtVUzFiUulhtwpgHVa-1" value="Setup argparser parser (command, --apikey)" style="whiteSpace=wrap;html=1;" vertex="1" parent="1">
          <mxGeometry x="338" y="1044" width="176" height="49" as="geometry" />
        </mxCell>
        <mxCell id="cMrtVUzFiUulhtwpgHVa-8" value="" style="edgeStyle=orthogonalEdgeStyle;rounded=0;orthogonalLoop=1;jettySize=auto;html=1;" edge="1" parent="1" source="cMrtVUzFiUulhtwpgHVa-3" target="cMrtVUzFiUulhtwpgHVa-7">
          <mxGeometry relative="1" as="geometry" />
        </mxCell>
        <mxCell id="cMrtVUzFiUulhtwpgHVa-3" value="Parse Arguments" style="whiteSpace=wrap;html=1;" vertex="1" parent="1">
          <mxGeometry x="366" y="1115" width="120" height="37" as="geometry" />
        </mxCell>
        <mxCell id="cMrtVUzFiUulhtwpgHVa-12" value="" style="edgeStyle=orthogonalEdgeStyle;rounded=0;orthogonalLoop=1;jettySize=auto;html=1;" edge="1" parent="1" source="cMrtVUzFiUulhtwpgHVa-7" target="cMrtVUzFiUulhtwpgHVa-11">
          <mxGeometry relative="1" as="geometry" />
        </mxCell>
        <mxCell id="cMrtVUzFiUulhtwpgHVa-14" value="" style="edgeStyle=orthogonalEdgeStyle;rounded=0;orthogonalLoop=1;jettySize=auto;html=1;" edge="1" parent="1" source="cMrtVUzFiUulhtwpgHVa-7" target="cMrtVUzFiUulhtwpgHVa-13">
          <mxGeometry relative="1" as="geometry" />
        </mxCell>
        <mxCell id="cMrtVUzFiUulhtwpgHVa-16" value="" style="edgeStyle=orthogonalEdgeStyle;rounded=0;orthogonalLoop=1;jettySize=auto;html=1;" edge="1" parent="1" source="cMrtVUzFiUulhtwpgHVa-7" target="cMrtVUzFiUulhtwpgHVa-15">
          <mxGeometry relative="1" as="geometry" />
        </mxCell>
        <mxCell id="cMrtVUzFiUulhtwpgHVa-7" value="Which Command" style="rhombus;whiteSpace=wrap;html=1;" vertex="1" parent="1">
          <mxGeometry x="386" y="1190" width="80" height="80" as="geometry" />
        </mxCell>
        <mxCell id="cMrtVUzFiUulhtwpgHVa-11" value="" style="whiteSpace=wrap;html=1;" vertex="1" parent="1">
          <mxGeometry x="237" y="1207.5" width="71" height="45" as="geometry" />
        </mxCell>
        <mxCell id="cMrtVUzFiUulhtwpgHVa-22" value="" style="edgeStyle=orthogonalEdgeStyle;rounded=0;orthogonalLoop=1;jettySize=auto;html=1;" edge="1" parent="1" source="cMrtVUzFiUulhtwpgHVa-13" target="cMrtVUzFiUulhtwpgHVa-21">
          <mxGeometry relative="1" as="geometry" />
        </mxCell>
        <mxCell id="cMrtVUzFiUulhtwpgHVa-13" value="" style="whiteSpace=wrap;html=1;" vertex="1" parent="1">
          <mxGeometry x="377" y="1296" width="101" height="35" as="geometry" />
        </mxCell>
        <mxCell id="cMrtVUzFiUulhtwpgHVa-15" value="" style="whiteSpace=wrap;html=1;" vertex="1" parent="1">
          <mxGeometry x="530" y="1210" width="76" height="40" as="geometry" />
        </mxCell>
        <mxCell id="cMrtVUzFiUulhtwpgHVa-17" value="" style="whiteSpace=wrap;html=1;" vertex="1" parent="1">
          <mxGeometry x="240" y="1283" width="71" height="45" as="geometry" />
        </mxCell>
        <mxCell id="cMrtVUzFiUulhtwpgHVa-18" value="" style="whiteSpace=wrap;html=1;" vertex="1" parent="1">
          <mxGeometry x="530" y="1291" width="76" height="40" as="geometry" />
        </mxCell>
        <mxCell id="cMrtVUzFiUulhtwpgHVa-19" value="" style="endArrow=classic;html=1;rounded=0;" edge="1" parent="1">
          <mxGeometry width="50" height="50" relative="1" as="geometry">
            <mxPoint x="385" y="1234" as="sourcePoint" />
            <mxPoint x="310.51" y="1285" as="targetPoint" />
          </mxGeometry>
        </mxCell>
        <mxCell id="cMrtVUzFiUulhtwpgHVa-20" value="" style="endArrow=classic;html=1;rounded=0;entryX=0;entryY=0;entryDx=0;entryDy=0;" edge="1" parent="1" target="cMrtVUzFiUulhtwpgHVa-18">
          <mxGeometry width="50" height="50" relative="1" as="geometry">
            <mxPoint x="466" y="1231" as="sourcePoint" />
            <mxPoint x="498" y="1275" as="targetPoint" />
          </mxGeometry>
        </mxCell>
        <mxCell id="cMrtVUzFiUulhtwpgHVa-21" value="End" style="ellipse;whiteSpace=wrap;html=1;" vertex="1" parent="1">
          <mxGeometry x="364" y="1388.5" width="128" height="41.5" as="geometry" />
        </mxCell>
      </root>
    </mxGraphModel>
  </diagram>
</mxfile>
